# This file uses centimeters as units for non-parametric coordinates.

mtllib Greeble_Square_Smaller.mtl
g default
v -2.109360 -0.186370 -2.196468
v -2.109360 -0.228796 2.022034
v -2.109360 1.943960 -2.175045
v -2.109360 1.901534 2.043461
v 2.109360 1.943960 -2.175045
v 2.109360 1.901534 2.043461
v 2.109360 -0.186370 -2.196468
v 2.109360 -0.228796 2.022034
v 1.164829 0.948544 1.751904
v 1.164829 0.944152 2.188625
v 1.164829 1.728658 1.759750
v 1.164829 1.724266 2.196468
v 1.979397 1.728658 1.759750
v 1.979397 1.724266 2.196468
v 1.979397 0.948544 1.751904
v 1.979397 0.944152 2.188625
vt 0.375000 0.000000
vt 0.625000 0.000000
vt 0.375000 0.250000
vt 0.625000 0.250000
vt 0.375000 0.500000
vt 0.625000 0.500000
vt 0.375000 0.750000
vt 0.625000 0.750000
vt 0.375000 1.000000
vt 0.625000 1.000000
vt 0.875000 0.000000
vt 0.875000 0.250000
vt 0.125000 0.000000
vt 0.125000 0.250000
vt 0.375000 0.000000
vt 0.625000 0.000000
vt 0.625000 0.250000
vt 0.375000 0.250000
vt 0.625000 0.500000
vt 0.375000 0.500000
vt 0.625000 0.750000
vt 0.375000 0.750000
vt 0.625000 1.000000
vt 0.375000 1.000000
vt 0.875000 0.000000
vt 0.875000 0.250000
vt 0.125000 0.000000
vt 0.125000 0.250000
vn -1.000000 -0.000000 0.000000
vn -1.000000 -0.000000 0.000000
vn -1.000000 -0.000000 0.000000
vn -1.000000 -0.000000 0.000000
vn 0.000000 0.999949 0.010057
vn 0.000000 0.999949 0.010057
vn 0.000000 0.999949 0.010057
vn 0.000000 0.999949 0.010057
vn 1.000000 -0.000000 0.000000
vn 1.000000 -0.000000 0.000000
vn 1.000000 -0.000000 0.000000
vn 1.000000 -0.000000 0.000000
vn 0.000000 -0.999949 -0.010057
vn 0.000000 -0.999949 -0.010057
vn 0.000000 -0.999949 -0.010057
vn 0.000000 -0.999949 -0.010057
vn 0.000000 -0.010058 0.999950
vn 0.000000 -0.010058 0.999950
vn 0.000000 -0.010058 0.999950
vn 0.000000 -0.010058 0.999950
vn 0.000000 0.010056 -0.999950
vn 0.000000 0.010056 -0.999950
vn 0.000000 0.010056 -0.999950
vn 0.000000 0.010056 -0.999950
vn -1.000000 -0.000000 0.000000
vn -1.000000 -0.000000 0.000000
vn -1.000000 -0.000000 0.000000
vn -1.000000 -0.000000 0.000000
vn 0.000000 0.999950 0.010057
vn 0.000000 0.999950 0.010057
vn 0.000000 0.999950 0.010057
vn 0.000000 0.999950 0.010057
vn 1.000000 0.000000 0.000000
vn 1.000000 0.000000 0.000000
vn 1.000000 0.000000 0.000000
vn 1.000000 0.000000 0.000000
vn 0.000000 -0.999949 -0.010057
vn 0.000000 -0.999949 -0.010057
vn 0.000000 -0.999949 -0.010057
vn 0.000000 -0.999949 -0.010057
vn 0.000000 -0.010053 0.999949
vn 0.000000 -0.010053 0.999949
vn 0.000000 -0.010053 0.999949
vn 0.000000 -0.010053 0.999949
vn 0.000000 0.010058 -0.999949
vn 0.000000 0.010058 -0.999949
vn 0.000000 0.010058 -0.999949
vn 0.000000 0.010058 -0.999949
s off
g Greeble_Square_Smaller1
usemtl initialShadingGroup
f 1/1/1 2/2/2 4/4/3 3/3/4
f 3/3/5 4/4/6 6/6/7 5/5/8
f 5/5/9 6/6/10 8/8/11 7/7/12
f 7/7/13 8/8/14 2/10/15 1/9/16
f 2/2/17 8/11/18 6/12/19 4/4/20
f 7/13/21 1/1/22 3/3/23 5/14/24
f 9/15/25 10/16/26 12/17/27 11/18/28
f 11/18/29 12/17/30 14/19/31 13/20/32
f 13/20/33 14/19/34 16/21/35 15/22/36
f 15/22/37 16/21/38 10/23/39 9/24/40
f 10/16/41 16/25/42 14/26/43 12/17/44
f 15/27/45 9/15/46 11/18/47 13/28/48
