# This file uses centimeters as units for non-parametric coordinates.

mtllib Greeble_Square_Med.mtl
g default
v 3.533036 -0.440633 -8.405483
v 3.533036 -0.474404 -5.047619
v 3.533036 6.448172 -8.336201
v 3.533036 6.414400 -4.978333
v 8.237363 6.448172 -8.336201
v 8.237363 6.414400 -4.978333
v 8.237363 -0.440633 -8.405483
v 8.237363 -0.474404 -5.047619
v -8.237363 0.683888 -7.128273
v -8.237363 0.657768 -4.531208
v -8.237363 6.539642 -7.069378
v -8.237363 6.513523 -4.472317
v -1.035316 6.539642 -7.069378
v -1.035316 6.513523 -4.472317
v -1.035316 0.683888 -7.128273
v -1.035316 0.657768 -4.531208
v -8.133770 -0.848480 2.264450
v -8.133770 -0.907887 8.171310
v -8.133770 15.432972 2.428196
v -8.133770 15.373564 8.335060
v 0.062433 15.432972 2.428196
v 0.062433 15.373564 8.335060
v 0.062433 -0.848480 2.264450
v 0.062433 -0.907887 8.171310
v 0.848020 11.384396 1.883293
v 0.848020 11.319208 8.364891
v 0.848020 15.420050 1.923882
v 0.848020 15.354864 8.405479
v 4.354740 15.420050 1.923882
v 4.354740 15.354864 8.405479
v 4.354740 11.384396 1.883293
v 4.354740 11.319208 8.364891
v 7.826225 -0.289778 7.399399
v 7.826225 -0.135037 -7.986595
v 7.826225 16.426840 7.567528
v 7.826225 16.581581 -7.818470
v -7.560548 16.426840 7.567528
v -7.560548 -0.289778 7.399399
v -7.560548 -0.135037 -7.986595
v -0.545137 16.581581 -7.818470
v -0.545137 16.426840 7.567528
v -0.545137 -0.289778 7.399399
v -0.545137 -0.135037 -7.986595
v -7.560548 13.525223 -7.849209
v -7.560548 13.370481 7.536789
v -0.545137 13.370481 7.536789
v 7.826225 13.370481 7.536789
v 7.826225 13.525223 -7.849209
v -0.545137 13.525223 -7.849209
v -0.545137 13.514488 -6.781929
v -0.545137 16.570848 -6.751190
v -7.560548 13.514488 -6.781929
v -7.560548 16.570848 -6.751190
vt 0.375000 0.000000
vt 0.625000 0.000000
vt 0.375000 0.250000
vt 0.625000 0.250000
vt 0.375000 0.500000
vt 0.625000 0.500000
vt 0.375000 0.750000
vt 0.625000 0.750000
vt 0.375000 1.000000
vt 0.625000 1.000000
vt 0.875000 0.000000
vt 0.875000 0.250000
vt 0.125000 0.000000
vt 0.125000 0.250000
vt 0.375000 0.000000
vt 0.625000 0.000000
vt 0.625000 0.250000
vt 0.375000 0.250000
vt 0.625000 0.500000
vt 0.375000 0.500000
vt 0.625000 0.750000
vt 0.375000 0.750000
vt 0.625000 1.000000
vt 0.375000 1.000000
vt 0.875000 0.000000
vt 0.875000 0.250000
vt 0.125000 0.000000
vt 0.125000 0.250000
vt 0.375000 0.000000
vt 0.625000 0.000000
vt 0.625000 0.250000
vt 0.375000 0.250000
vt 0.625000 0.500000
vt 0.375000 0.500000
vt 0.625000 0.750000
vt 0.375000 0.750000
vt 0.625000 1.000000
vt 0.375000 1.000000
vt 0.875000 0.000000
vt 0.875000 0.250000
vt 0.125000 0.000000
vt 0.125000 0.250000
vt 0.375000 0.000000
vt 0.625000 0.000000
vt 0.625000 0.250000
vt 0.375000 0.250000
vt 0.625000 0.500000
vt 0.375000 0.500000
vt 0.625000 0.750000
vt 0.375000 0.750000
vt 0.625000 1.000000
vt 0.375000 1.000000
vt 0.875000 0.000000
vt 0.875000 0.250000
vt 0.125000 0.000000
vt 0.125000 0.250000
vt 0.375000 0.204292
vt 0.625000 0.204292
vt 0.625005 0.249961
vt 0.374996 0.249958
vt 0.375000 0.863984
vt 0.625000 0.863984
vt 0.625000 1.000000
vt 0.375000 1.000000
vt 0.761016 0.204292
vt 0.761016 0.250000
vt 0.238984 0.204292
vt 0.238998 0.249934
vt 0.125028 0.204253
vt 0.125048 0.249881
vt 0.375000 0.750000
vt 0.625000 0.750000
vt 0.761029 0.249966
vt 0.761016 0.204292
vt 0.875000 0.204292
vt 0.875000 0.250000
vt 0.375012 0.545724
vt 0.625000 0.545708
vt 0.125000 0.000000
vt 0.238984 0.000000
vt 0.375000 0.000000
vt 0.625000 0.000000
vt 0.761016 0.000000
vt 0.875000 0.204292
vt 0.875000 0.000000
vt 0.000000 0.000000
vt 1.000000 0.000000
vt 0.998883 1.004591
vt 0.001491 1.004604
vt 0.000226 0.000037
vt 1.000000 0.000000
vt 0.999579 1.001827
vt 0.000135 1.001844
vt 0.000000 0.000000
vt 1.000000 0.000000
vt 0.999946 1.045037
vt -0.037024 1.044995
vn -1.000000 -0.000000 0.000000
vn -1.000000 -0.000000 0.000000
vn -1.000000 -0.000000 0.000000
vn -1.000000 -0.000000 0.000000
vn 0.000000 0.999950 0.010057
vn 0.000000 0.999950 0.010057
vn 0.000000 0.999950 0.010057
vn 0.000000 0.999950 0.010057
vn 1.000000 -0.000000 0.000000
vn 1.000000 -0.000000 0.000000
vn 1.000000 -0.000000 0.000000
vn 1.000000 -0.000000 0.000000
vn 0.000000 -0.999949 -0.010057
vn 0.000000 -0.999949 -0.010057
vn 0.000000 -0.999949 -0.010057
vn 0.000000 -0.999949 -0.010057
vn 0.000000 -0.010057 0.999950
vn 0.000000 -0.010057 0.999950
vn 0.000000 -0.010057 0.999950
vn 0.000000 -0.010057 0.999950
vn 0.000000 0.010057 -0.999950
vn 0.000000 0.010057 -0.999950
vn 0.000000 0.010057 -0.999950
vn 0.000000 0.010057 -0.999950
vn -1.000000 0.000000 0.000000
vn -1.000000 0.000000 0.000000
vn -1.000000 0.000000 0.000000
vn -1.000000 0.000000 0.000000
vn 0.000000 0.999949 0.010057
vn 0.000000 0.999949 0.010057
vn 0.000000 0.999949 0.010057
vn 0.000000 0.999949 0.010057
vn 1.000000 0.000000 0.000000
vn 1.000000 0.000000 0.000000
vn 1.000000 0.000000 0.000000
vn 1.000000 0.000000 0.000000
vn 0.000000 -0.999949 -0.010057
vn 0.000000 -0.999949 -0.010057
vn 0.000000 -0.999949 -0.010057
vn 0.000000 -0.999949 -0.010057
vn 0.000000 -0.010056 0.999949
vn 0.000000 -0.010056 0.999949
vn 0.000000 -0.010056 0.999949
vn 0.000000 -0.010056 0.999949
vn 0.000000 0.010057 -0.999949
vn 0.000000 0.010057 -0.999949
vn 0.000000 0.010057 -0.999949
vn 0.000000 0.010057 -0.999949
vn -1.000000 -0.000000 0.000000
vn -1.000000 -0.000000 0.000000
vn -1.000000 -0.000000 0.000000
vn -1.000000 -0.000000 0.000000
vn 0.000000 0.999949 0.010057
vn 0.000000 0.999949 0.010057
vn 0.000000 0.999949 0.010057
vn 0.000000 0.999949 0.010057
vn 1.000000 0.000000 0.000000
vn 1.000000 0.000000 0.000000
vn 1.000000 0.000000 0.000000
vn 1.000000 0.000000 0.000000
vn 0.000000 -0.999949 -0.010057
vn 0.000000 -0.999949 -0.010057
vn 0.000000 -0.999949 -0.010057
vn 0.000000 -0.999949 -0.010057
vn 0.000000 -0.010057 0.999950
vn 0.000000 -0.010057 0.999950
vn 0.000000 -0.010057 0.999950
vn 0.000000 -0.010057 0.999950
vn 0.000000 0.010057 -0.999949
vn 0.000000 0.010057 -0.999949
vn 0.000000 0.010057 -0.999949
vn 0.000000 0.010057 -0.999949
vn -1.000000 0.000000 0.000000
vn -1.000000 0.000000 0.000000
vn -1.000000 0.000000 0.000000
vn -1.000000 0.000000 0.000000
vn 0.000000 0.999950 0.010057
vn 0.000000 0.999949 0.010057
vn 0.000000 0.999949 0.010057
vn 0.000000 0.999949 0.010057
vn 1.000000 0.000000 0.000000
vn 1.000000 0.000000 0.000000
vn 1.000000 0.000000 0.000000
vn 1.000000 0.000000 0.000000
vn 0.000000 -0.999949 -0.010057
vn 0.000000 -0.999949 -0.010057
vn 0.000000 -0.999949 -0.010057
vn 0.000000 -0.999950 -0.010057
vn 0.000000 -0.010057 0.999949
vn 0.000000 -0.010057 0.999949
vn 0.000000 -0.010057 0.999949
vn 0.000000 -0.010057 0.999949
vn 0.000000 0.010057 -0.999950
vn 0.000000 0.010057 -0.999950
vn 0.000000 0.010057 -0.999950
vn 0.000000 0.010057 -0.999950
vn 1.000000 -0.000000 0.000000
vn 1.000000 -0.000000 0.000000
vn 1.000000 -0.000000 0.000000
vn 1.000000 -0.000000 0.000000
vn 0.000000 -0.999949 -0.010057
vn 0.000000 -0.999949 -0.010057
vn 0.000000 -0.999950 -0.010057
vn 0.000000 -0.999950 -0.010057
vn 0.000000 0.010057 -0.999950
vn 0.000000 0.010057 -0.999950
vn 0.000000 0.010057 -0.999950
vn 0.000000 0.010057 -0.999950
vn 0.000000 -0.010057 0.999950
vn 0.000000 -0.010057 0.999949
vn 0.000000 -0.010057 0.999950
vn 0.000000 -0.010057 0.999950
vn 0.000000 -0.010057 0.999950
vn 0.000000 -0.010057 0.999950
vn 0.000000 -0.999950 -0.010057
vn 0.000000 -0.999950 -0.010057
vn 0.000000 0.010057 -0.999950
vn 0.000000 0.010057 -0.999950
vn 0.000000 0.010057 -0.999950
vn 0.000000 0.010057 -0.999950
vn -1.000000 0.000000 0.000000
vn -1.000000 0.000000 0.000000
vn -1.000000 0.000000 0.000000
vn -1.000000 0.000000 0.000000
vn 0.000000 -0.010057 0.999950
vn 0.000000 -0.010057 0.999950
vn 0.000000 -0.010057 0.999949
vn 1.000000 -0.000000 0.000000
vn 1.000000 -0.000000 0.000000
vn 0.000000 0.010057 -0.999949
vn 0.000000 0.010057 -0.999949
vn 0.000000 0.010057 -0.999950
vn 0.000000 0.010057 -0.999950
vn -1.000000 0.000000 0.000000
vn -1.000000 0.000000 0.000000
vn -1.000000 0.000000 0.000000
vn -1.000000 0.000000 0.000000
vn 0.000000 0.999949 0.010058
vn 0.000000 0.999949 0.010058
vn 0.000000 0.999949 0.010058
vn 0.000000 0.999949 0.010058
vn -1.000000 0.000000 0.000000
vn -1.000000 0.000000 0.000000
vn -1.000000 0.000000 0.000000
vn -1.000000 0.000000 0.000000
vn 0.000000 0.999950 0.010057
vn 0.000000 0.999950 0.010057
vn 0.000000 0.999950 0.010057
vn 0.000000 0.999950 0.010057
vn 0.000000 0.999950 0.010057
vn 0.000000 0.999949 0.010057
vn 0.000000 0.999949 0.010057
vn 0.000000 0.999949 0.010057
vn 0.000000 0.999950 0.010055
vn 0.000000 0.999950 0.010055
vn 0.000000 0.999950 0.010055
s off
g Greeble_Square_Med1
usemtl initialShadingGroup
f 1/1/1 2/2/2 4/4/3 3/3/4
f 3/3/5 4/4/6 6/6/7 5/5/8
f 5/5/9 6/6/10 8/8/11 7/7/12
f 7/7/13 8/8/14 2/10/15 1/9/16
f 2/2/17 8/11/18 6/12/19 4/4/20
f 7/13/21 1/1/22 3/3/23 5/14/24
f 9/15/25 10/16/26 12/17/27 11/18/28
f 11/18/29 12/17/30 14/19/31 13/20/32
f 13/20/33 14/19/34 16/21/35 15/22/36
f 15/22/37 16/21/38 10/23/39 9/24/40
f 10/16/41 16/25/42 14/26/43 12/17/44
f 15/27/45 9/15/46 11/18/47 13/28/48
f 17/29/49 18/30/50 20/31/51 19/32/52
f 19/32/53 20/31/54 22/33/55 21/34/56
f 21/34/57 22/33/58 24/35/59 23/36/60
f 23/36/61 24/35/62 18/37/63 17/38/64
f 18/30/65 24/39/66 22/40/67 20/31/68
f 23/41/69 17/29/70 19/32/71 21/42/72
f 25/43/73 26/44/74 28/45/75 27/46/76
f 27/46/77 28/45/78 30/47/79 29/48/80
f 29/48/81 30/47/82 32/49/83 31/50/84
f 31/50/85 32/49/86 26/51/87 25/52/88
f 26/44/89 32/53/90 30/54/91 28/45/92
f 31/55/93 25/43/94 27/46/95 29/56/96
s 1
f 47/57/97 48/58/98 36/59/99 35/60/100
s 2
f 42/61/101 43/62/102 34/63/103 33/64/104
s 3
f 48/58/105 49/65/106 40/66/107 36/59/108
s 4
f 46/67/109 47/57/110 35/60/111 41/68/112
f 45/69/113 46/67/109 41/68/112 37/70/114
s 2
f 38/71/115 39/72/116 43/62/102 42/61/101
s off
f 51/73/117 50/74/118 52/75/119 53/76/120
f 45/77/121 44/78/122 39/72/123 38/71/124
s 4
f 38/79/125 42/80/126 46/67/109 45/69/113
f 42/80/126 33/81/127 47/57/110 46/67/109
s 1
f 33/81/128 34/82/129 48/58/98 47/57/97
s 3
f 34/82/130 43/83/131 49/65/106 48/58/105
f 44/84/132 49/65/106 43/83/131 39/85/133
s off
f 40/66/134 49/65/135 50/74/136 51/73/137
f 49/65/138 44/84/139 52/75/140 50/74/141
f 53/86/142 52/87/143 45/88/144 37/89/145
f 51/90/146 53/91/147 37/92/148 41/93/149
f 51/94/150 41/95/151 35/96/152 36/97/153
f 40/66/154 51/94/155 36/59/156
