# This file uses centimeters as units for non-parametric coordinates.

mtllib Greeble_Rectangle_Med.mtl
g default
v -6.886398 -0.106326 -6.882275
v -6.886398 -0.242474 6.654938
v -6.886398 37.539104 -6.503664
v -6.886398 37.402958 7.033550
v 6.651505 37.539104 -6.503664
v 6.651505 -0.106326 -6.882275
v 6.651505 -0.242474 6.654938
v 0.479061 37.402958 7.033550
v 0.479061 37.539104 -6.503664
v 0.479061 -0.106326 -6.882275
v 0.479061 -0.242474 6.654938
v 6.651505 30.520111 6.964325
v 6.651505 30.656261 -6.572887
v 0.479061 30.656261 -6.572887
v -6.886398 30.656261 -6.572887
v -6.886398 30.520111 6.964325
v 0.479061 30.520111 6.964325
v 0.479061 30.529556 6.025291
v 0.479061 37.412403 6.094517
v 6.651505 30.529556 6.025291
v 6.651505 37.412403 6.094517
v 0.406250 26.593185 -7.139885
v 0.406250 26.535831 -1.437115
v 0.406250 33.679451 -7.068617
v 0.406250 33.622097 -1.365845
v 3.491604 33.679451 -7.068617
v 3.491604 33.622097 -1.365845
v 3.491604 26.593185 -7.139885
v 3.491604 26.535831 -1.437115
v 3.345810 2.485699 -1.639027
v 3.345810 2.428344 4.063744
v 3.345810 34.576973 -1.316277
v 3.345810 34.519619 4.386494
v 7.484863 34.576973 -1.316277
v 7.484863 34.519619 4.386494
v 7.484863 2.485699 -1.639027
v 7.484863 2.428344 4.063744
v 2.933601 -0.529442 -7.312487
v 2.933601 -0.559155 -4.358105
v 2.933601 3.975404 -7.267181
v 2.933601 3.945691 -4.312798
v 7.072655 3.975404 -7.267181
v 7.072655 3.945691 -4.312798
v 7.072655 -0.529442 -7.312487
v 7.072655 -0.559155 -4.358105
v -7.484863 7.507966 2.219894
v -7.484863 7.455696 7.416992
v -7.484863 29.478107 2.440857
v -7.484863 29.425842 7.637951
v -3.345810 29.478107 2.440857
v -3.345810 29.425842 7.637951
v -3.345810 7.507966 2.219894
v -3.345810 7.455696 7.416992
v -6.492058 -0.470639 -7.637953
v -6.492058 -0.527993 -1.935181
v -6.492058 31.620636 -7.315203
v -6.492058 31.563282 -1.612431
v -0.155407 31.620636 -7.315203
v -0.155407 31.563282 -1.612431
v -0.155407 -0.470639 -7.637953
v -0.155407 -0.527993 -1.935181
vt 0.375000 0.000000
vt 0.625000 0.000000
vt 0.374996 0.249958
vt 0.625005 0.249961
vt 0.375000 0.750000
vt 0.625000 0.750000
vt 0.375000 1.000000
vt 0.625000 1.000000
vt 0.875000 0.000000
vt 0.125000 0.000000
vt 0.125048 0.249881
vt 0.761016 0.250000
vt 0.238998 0.249934
vt 0.238984 0.000000
vt 0.375000 0.863984
vt 0.625000 0.863984
vt 0.761016 0.000000
vt 0.625000 0.545708
vt 0.875000 0.204292
vt 0.125028 0.204253
vt 0.375012 0.545724
vt 0.238984 0.204292
vt 0.375000 0.204292
vt 0.625000 0.204292
vt 0.761016 0.204292
vt 0.761029 0.249966
vt 0.761016 0.204292
vt 0.875000 0.204292
vt 0.875000 0.250000
vt 0.000000 0.000000
vt 1.000000 0.000000
vt 0.998883 1.004591
vt 0.001491 1.004604
vt 0.000226 0.000037
vt 1.000000 0.000000
vt 0.999579 1.001827
vt 0.000135 1.001844
vt 0.000000 0.000000
vt 1.000000 0.000000
vt 0.999946 1.045037
vt -0.037024 1.044995
vt 0.375000 0.000000
vt 0.625000 0.000000
vt 0.625000 0.250000
vt 0.375000 0.250000
vt 0.625000 0.500000
vt 0.375000 0.500000
vt 0.625000 0.750000
vt 0.375000 0.750000
vt 0.625000 1.000000
vt 0.375000 1.000000
vt 0.875000 0.000000
vt 0.875000 0.250000
vt 0.125000 0.000000
vt 0.125000 0.250000
vt 0.375000 0.000000
vt 0.625000 0.000000
vt 0.625000 0.250000
vt 0.375000 0.250000
vt 0.625000 0.500000
vt 0.375000 0.500000
vt 0.625000 0.750000
vt 0.375000 0.750000
vt 0.625000 1.000000
vt 0.375000 1.000000
vt 0.875000 0.000000
vt 0.875000 0.250000
vt 0.125000 0.000000
vt 0.125000 0.250000
vt 0.375000 0.000000
vt 0.625000 0.000000
vt 0.625000 0.250000
vt 0.375000 0.250000
vt 0.625000 0.500000
vt 0.375000 0.500000
vt 0.625000 0.750000
vt 0.375000 0.750000
vt 0.625000 1.000000
vt 0.375000 1.000000
vt 0.875000 0.000000
vt 0.875000 0.250000
vt 0.125000 0.000000
vt 0.125000 0.250000
vt 0.375000 0.000000
vt 0.625000 0.000000
vt 0.625000 0.250000
vt 0.375000 0.250000
vt 0.625000 0.500000
vt 0.375000 0.500000
vt 0.625000 0.750000
vt 0.375000 0.750000
vt 0.625000 1.000000
vt 0.375000 1.000000
vt 0.875000 0.000000
vt 0.875000 0.250000
vt 0.125000 0.000000
vt 0.125000 0.250000
vt 0.375000 0.000000
vt 0.625000 0.000000
vt 0.625000 0.250000
vt 0.375000 0.250000
vt 0.625000 0.500000
vt 0.375000 0.500000
vt 0.625000 0.750000
vt 0.375000 0.750000
vt 0.625000 1.000000
vt 0.375000 1.000000
vt 0.875000 0.000000
vt 0.875000 0.250000
vt 0.125000 0.000000
vt 0.125000 0.250000
vn -1.000000 -0.000000 0.000000
vn -1.000000 -0.000000 0.000000
vn -1.000000 -0.000000 0.000000
vn -1.000000 -0.000000 0.000000
vn 0.000000 -0.999949 -0.010057
vn 0.000000 -0.999949 -0.010057
vn 0.000000 -0.999949 -0.010057
vn 0.000000 -0.999949 -0.010057
vn 0.000000 -0.010057 0.999949
vn 0.000000 -0.010057 0.999950
vn 0.000000 -0.010057 0.999950
vn 0.000000 -0.010057 0.999950
vn 0.000000 0.010057 -0.999949
vn 0.000000 0.010057 -0.999950
vn 0.000000 0.010057 -0.999950
vn 0.000000 0.010057 -0.999949
vn 0.000000 0.010057 -0.999950
vn 0.000000 0.010057 -0.999950
vn 0.000000 -0.999950 -0.010057
vn 0.000000 -0.999950 -0.010057
vn 0.000000 -0.010057 0.999950
vn 0.000000 -0.010057 0.999950
vn 0.000000 -0.010057 0.999950
vn 0.000000 -0.010057 0.999950
vn 1.000000 0.000000 0.000000
vn 1.000000 0.000000 0.000000
vn 1.000000 0.000000 0.000000
vn 1.000000 0.000000 0.000000
vn 0.000000 0.010057 -0.999949
vn 0.000000 0.010057 -0.999949
vn 0.000000 0.010057 -0.999950
vn -1.000000 -0.000000 0.000000
vn -1.000000 -0.000000 0.000000
vn 0.000000 -0.010057 0.999950
vn 0.000000 -0.010057 0.999950
vn 0.000000 -0.010057 0.999950
vn 0.000000 -0.010057 0.999950
vn 1.000000 0.000000 0.000000
vn 1.000000 0.000000 0.000000
vn 1.000000 0.000000 0.000000
vn 1.000000 0.000000 0.000000
vn 0.000000 0.999950 0.010059
vn 0.000000 0.999950 0.010059
vn 0.000000 0.999950 0.010059
vn 0.000000 0.999950 0.010059
vn 1.000000 -0.000000 0.000000
vn 1.000000 -0.000000 0.000000
vn 1.000000 -0.000000 0.000000
vn 1.000000 -0.000000 0.000000
vn 0.000000 0.999950 0.010057
vn 0.000000 0.999950 0.010057
vn 0.000000 0.999950 0.010057
vn 0.000000 0.999950 0.010057
vn -0.000000 0.999950 0.010057
vn -0.000000 0.999950 0.010057
vn -0.000000 0.999950 0.010057
vn -0.000000 0.999950 0.010057
vn 0.000000 0.999949 0.010060
vn 0.000000 0.999949 0.010060
vn 0.000000 0.999949 0.010060
vn -1.000000 -0.000000 0.000000
vn -1.000000 -0.000000 0.000000
vn -1.000000 -0.000000 0.000000
vn -1.000000 -0.000000 0.000000
vn 0.000000 0.999950 0.010057
vn 0.000000 0.999950 0.010057
vn 0.000000 0.999950 0.010057
vn 0.000000 0.999950 0.010057
vn 1.000000 -0.000000 0.000000
vn 1.000000 -0.000000 0.000000
vn 1.000000 -0.000000 0.000000
vn 1.000000 -0.000000 0.000000
vn 0.000000 -0.999950 -0.010057
vn 0.000000 -0.999950 -0.010057
vn 0.000000 -0.999950 -0.010057
vn 0.000000 -0.999950 -0.010057
vn 0.000000 -0.010057 0.999949
vn 0.000000 -0.010057 0.999949
vn 0.000000 -0.010057 0.999949
vn 0.000000 -0.010057 0.999949
vn 0.000000 0.010057 -0.999949
vn 0.000000 0.010057 -0.999949
vn 0.000000 0.010057 -0.999949
vn 0.000000 0.010057 -0.999949
vn -1.000000 -0.000000 0.000000
vn -1.000000 -0.000000 0.000000
vn -1.000000 -0.000000 0.000000
vn -1.000000 -0.000000 0.000000
vn 0.000000 0.999949 0.010057
vn 0.000000 0.999949 0.010057
vn 0.000000 0.999949 0.010057
vn 0.000000 0.999949 0.010057
vn 1.000000 0.000000 0.000000
vn 1.000000 0.000000 0.000000
vn 1.000000 0.000000 0.000000
vn 1.000000 0.000000 0.000000
vn 0.000000 -0.999949 -0.010057
vn 0.000000 -0.999949 -0.010057
vn 0.000000 -0.999949 -0.010057
vn 0.000000 -0.999949 -0.010057
vn 0.000000 -0.010057 0.999949
vn 0.000000 -0.010057 0.999949
vn 0.000000 -0.010057 0.999949
vn 0.000000 -0.010057 0.999949
vn 0.000000 0.010057 -0.999949
vn 0.000000 0.010057 -0.999949
vn 0.000000 0.010057 -0.999949
vn 0.000000 0.010057 -0.999949
vn -1.000000 -0.000000 0.000000
vn -1.000000 -0.000000 0.000000
vn -1.000000 -0.000000 0.000000
vn -1.000000 -0.000000 0.000000
vn 0.000000 0.999949 0.010057
vn 0.000000 0.999949 0.010057
vn 0.000000 0.999949 0.010057
vn 0.000000 0.999949 0.010057
vn 1.000000 0.000000 0.000000
vn 1.000000 0.000000 0.000000
vn 1.000000 0.000000 0.000000
vn 1.000000 0.000000 0.000000
vn 0.000000 -0.999949 -0.010057
vn 0.000000 -0.999949 -0.010057
vn 0.000000 -0.999949 -0.010057
vn 0.000000 -0.999949 -0.010057
vn 0.000000 -0.010057 0.999950
vn 0.000000 -0.010057 0.999950
vn 0.000000 -0.010057 0.999950
vn 0.000000 -0.010057 0.999950
vn 0.000000 0.010056 -0.999950
vn 0.000000 0.010056 -0.999950
vn 0.000000 0.010056 -0.999950
vn 0.000000 0.010056 -0.999950
vn -1.000000 0.000000 0.000000
vn -1.000000 0.000000 0.000000
vn -1.000000 0.000000 0.000000
vn -1.000000 0.000000 0.000000
vn 0.000000 0.999950 0.010056
vn 0.000000 0.999950 0.010056
vn 0.000000 0.999950 0.010056
vn 0.000000 0.999950 0.010056
vn 1.000000 -0.000000 0.000000
vn 1.000000 -0.000000 0.000000
vn 1.000000 -0.000000 0.000000
vn 1.000000 -0.000000 0.000000
vn 0.000000 -0.999949 -0.010057
vn 0.000000 -0.999949 -0.010057
vn 0.000000 -0.999949 -0.010057
vn 0.000000 -0.999949 -0.010057
vn 0.000000 -0.010057 0.999949
vn 0.000000 -0.010057 0.999949
vn 0.000000 -0.010057 0.999949
vn 0.000000 -0.010057 0.999949
vn 0.000000 0.010057 -0.999949
vn 0.000000 0.010057 -0.999949
vn 0.000000 0.010057 -0.999949
vn 0.000000 0.010057 -0.999949
vn -1.000000 0.000000 0.000000
vn -1.000000 0.000000 0.000000
vn -1.000000 0.000000 0.000000
vn -1.000000 0.000000 0.000000
vn 0.000000 0.999950 0.010057
vn 0.000000 0.999950 0.010057
vn 0.000000 0.999950 0.010057
vn 0.000000 0.999950 0.010057
vn 1.000000 0.000000 0.000000
vn 1.000000 0.000000 0.000000
vn 1.000000 0.000000 0.000000
vn 1.000000 0.000000 0.000000
vn 0.000000 -0.999950 -0.010057
vn 0.000000 -0.999950 -0.010057
vn 0.000000 -0.999950 -0.010057
vn 0.000000 -0.999950 -0.010057
vn 0.000000 -0.010057 0.999949
vn 0.000000 -0.010057 0.999949
vn 0.000000 -0.010057 0.999949
vn 0.000000 -0.010057 0.999949
vn 0.000000 0.010057 -0.999949
vn 0.000000 0.010057 -0.999949
vn 0.000000 0.010057 -0.999949
vn 0.000000 0.010057 -0.999949
s 1
g Greeble_Rectangle_Med1
usemtl initialShadingGroup
f 15/23/1 16/24/2 4/4/3 3/3/4
s 2
f 10/15/5 11/16/6 2/8/7 1/7/8
s 3
f 16/24/9 17/25/10 8/12/11 4/4/12
s 4
f 14/22/13 15/23/14 3/3/15 9/13/16
f 13/20/17 14/22/13 9/13/16 5/11/18
s 2
f 6/5/19 7/6/20 11/16/6 10/15/5
s off
f 19/26/21 18/27/22 20/28/23 21/29/24
f 13/21/25 12/18/26 7/6/27 6/5/28
s 4
f 6/10/29 10/14/30 14/22/13 13/20/17
f 10/14/30 1/1/31 15/23/14 14/22/13
s 1
f 1/1/32 2/2/33 16/24/2 15/23/1
s 3
f 2/2/34 11/17/35 17/25/10 16/24/9
f 12/19/36 17/25/10 11/17/35 7/9/37
s off
f 8/12/38 17/25/39 18/27/40 19/26/41
f 17/25/42 12/19/43 20/28/44 18/27/45
f 21/30/46 20/31/47 13/32/48 5/33/49
f 19/34/50 21/35/51 5/36/52 9/37/53
f 19/38/54 9/39/55 3/40/56 4/41/57
f 8/12/58 19/38/59 4/4/60
f 22/42/61 23/43/62 25/44/63 24/45/64
f 24/45/65 25/44/66 27/46/67 26/47/68
f 26/47/69 27/46/70 29/48/71 28/49/72
f 28/49/73 29/48/74 23/50/75 22/51/76
f 23/43/77 29/52/78 27/53/79 25/44/80
f 28/54/81 22/42/82 24/45/83 26/55/84
f 30/56/85 31/57/86 33/58/87 32/59/88
f 32/59/89 33/58/90 35/60/91 34/61/92
f 34/61/93 35/60/94 37/62/95 36/63/96
f 36/63/97 37/62/98 31/64/99 30/65/100
f 31/57/101 37/66/102 35/67/103 33/58/104
f 36/68/105 30/56/106 32/59/107 34/69/108
f 38/70/109 39/71/110 41/72/111 40/73/112
f 40/73/113 41/72/114 43/74/115 42/75/116
f 42/75/117 43/74/118 45/76/119 44/77/120
f 44/77/121 45/76/122 39/78/123 38/79/124
f 39/71/125 45/80/126 43/81/127 41/72/128
f 44/82/129 38/70/130 40/73/131 42/83/132
f 46/84/133 47/85/134 49/86/135 48/87/136
f 48/87/137 49/86/138 51/88/139 50/89/140
f 50/89/141 51/88/142 53/90/143 52/91/144
f 52/91/145 53/90/146 47/92/147 46/93/148
f 47/85/149 53/94/150 51/95/151 49/86/152
f 52/96/153 46/84/154 48/87/155 50/97/156
f 54/98/157 55/99/158 57/100/159 56/101/160
f 56/101/161 57/100/162 59/102/163 58/103/164
f 58/103/165 59/102/166 61/104/167 60/105/168
f 60/105/169 61/104/170 55/106/171 54/107/172
f 55/99/173 61/108/174 59/109/175 57/100/176
f 60/110/177 54/98/178 56/101/179 58/111/180
